 <svg  version="1.0" xmlns="http://www.w3.org/2000/svg"  width="300.000000pt" height="272.000000pt" viewBox="0 0 300.000000 272.000000"  preserveAspectRatio="xMidYMid meet">  <g transform="translate(0.000000,272.000000) scale(0.100000,-0.100000)" fill="#fbff00" stroke="none"> <path d="M2484 2679 c-65 -25 -124 -76 -176 -152 -42 -63 -125 -231 -173 -352 -15 -38 -34 -79 -41 -91 -8 -11 -66 -45 -129 -74 -63 -29 -115 -58 -115 -65 0 -6 15 -17 34 -23 50 -18 64 -39 40 -58 -12 -9 -15 -17 -8 -20 40 -17 47 -31 36 -64 -11 -29 -10 -35 12 -55 16 -15 27 -41 34 -84 7 -36 27 -91 47 -128 20 -36 34 -71 31 -78 -2 -7 -35 -24 -73 -39 -77 -31 -133 -63 -133 -77 0 -4 15 -16 33 -25 43 -22 48 -33 31 -65 -20 -39 -18 -46 16 -52 24 -5 30 -12 30 -32 0 -53 72 -28 272 94 99 59 128 72 182 80 119 17 217 78 281 175 73 109 228 537 261 716 14 77 15 106 7 157 -25 142 -125 281 -227 316 -70 24 -205 22 -272 -4z m269 -15 c110 -37 207 -210 207 -369 0 -174 -246 -835 -311 -835 -18 0 -9 41 23 103 61 118 77 157 68 162 -5 3 -30 -36 -56 -86 l-46 -92 -34 35 -35 34 40 83 c61 126 191 544 191 613 -1 119 -155 198 -264 134 -77 -45 -91 -73 -201 -395 -83 -241 -88 -259 -94 -365 -6 -90 -11 -119 -29 -148 -25 -41 -62 -68 -91 -68 -28 0 -75 84 -91 161 -24 111 21 279 170 639 97 235 202 361 330 401 45 13 174 10 223 -7z m-55 -234 c18 -11 41 -34 53 -52 33 -54 20 -127 -82 -448 -58 -180 -102 -280 -123 -280 -9 0 -22 25 -37 68 -31 94 -61 152 -115 218 l-47 57 28 91 c80 270 146 366 250 366 22 0 54 -9 73 -20z m-638 -417 c0 -5 -15 -63 -32 -130 -33 -122 -56 -157 -56 -85 -1 81 -12 112 -48 130 -19 8 -34 18 -34 21 0 7 140 69 158 70 6 1 12 -2 12 -6z m314 -115 c9 -12 16 -26 16 -30 0 -8 -69 -23 -76 -16 -9 9 18 68 31 68 8 0 21 -10 29 -22z m59 -98 c38 -30 62 -103 62 -185 0 -129 -74 -236 -238 -346 -81 -54 -216 -129 -233 -129 -3 0 -4 9 -1 19 5 21 -10 31 -45 31 -18 0 -20 4 -13 33 12 55 11 61 -17 75 -16 7 -28 17 -28 23 0 5 47 32 104 60 197 97 246 152 246 277 0 86 16 122 62 145 44 22 70 21 101 -3z m150 -248 c9 -8 17 -28 17 -44 0 -16 4 -37 9 -47 8 -14 0 -23 -39 -50 -28 -19 -66 -35 -91 -38 -43 -6 -43 -5 -27 13 21 24 73 130 82 167 7 29 14 28 49 -1z"/> <path d="M2558 2536 c-84 -23 -139 -80 -207 -213 -17 -34 -31 -65 -31 -69 0 -17 35 26 76 96 78 131 128 170 218 170 46 0 68 13 40 24 -22 8 -41 7 -96 -8z"/> <path d="M2276 2158 c-20 -28 -20 -38 -1 -38 8 0 17 11 21 25 9 35 -1 41 -20 13z"/> <path d="M2427 1594 c-10 -11 -8 -54 2 -54 14 0 25 40 14 51 -5 5 -12 6 -16 3z"/> <path d="M2326 1421 c-44 -40 -110 -90 -148 -113 -72 -43 -97 -65 -58 -53 81 26 299 194 289 224 -3 8 -34 -14 -83 -58z"/> <path d="M1473 1957 c-34 -15 -56 -72 -49 -125 12 -87 89 -192 141 -192 13 0 37 12 55 26 44 37 63 80 57 125 -11 86 -144 194 -204 166z m38 -78 c-7 -30 -9 -77 -5 -106 8 -64 -7 -70 -35 -15 -33 65 -31 133 5 169 37 37 49 19 35 -48z m82 5 c45 -52 56 -74 57 -116 0 -45 -40 -98 -76 -98 -13 0 -24 6 -24 13 0 6 -3 23 -7 36 -5 22 -4 23 20 19 35 -7 34 3 -2 25 -17 10 -33 26 -36 37 -6 19 21 120 31 120 3 0 19 -16 37 -36z"/> <path d="M1744 1795 c-51 -89 -84 -207 -69 -254 8 -27 45 -27 102 0 114 55 144 179 64 267 -41 45 -65 42 -97 -13z m81 -7 c14 -21 14 -24 -1 -33 -9 -5 -34 -25 -56 -43 -22 -17 -44 -29 -49 -26 -17 10 52 124 76 124 8 0 21 -10 30 -22z m29 -102 c-1 -66 -50 -126 -116 -142 -41 -9 -46 18 -15 82 31 63 53 72 44 19 -9 -53 10 -42 27 16 28 91 61 106 60 25z"/> <path d="M1203 1725 c-66 -21 -201 -87 -288 -141 -90 -56 -115 -68 -198 -89 -33 -8 -78 -26 -100 -40 -54 -31 -154 -134 -205 -210 -54 -82 -180 -317 -272 -510 -118 -246 -125 -268 -125 -360 1 -224 154 -381 352 -361 134 14 269 74 367 165 65 60 151 196 281 441 48 91 92 170 98 176 7 7 38 19 70 28 71 20 182 71 262 119 l59 36 -37 16 c-42 17 -46 34 -17 60 23 21 18 28 -31 53 -26 13 -33 23 -31 40 1 13 -1 22 -5 20 -5 -2 -47 -22 -95 -46 -95 -46 -108 -49 -108 -27 0 24 -31 106 -71 190 -22 44 -39 87 -39 97 0 18 134 72 235 92 55 12 60 15 63 42 2 16 15 41 28 55 l25 27 -25 27 c-15 17 -26 40 -26 56 0 24 -4 29 -25 29 -14 0 -28 7 -31 15 -7 18 -53 18 -111 0z m27 -34 c0 -11 14 -28 35 -40 42 -24 39 -39 -16 -77 -21 -14 -39 -30 -39 -34 0 -5 22 -13 50 -20 57 -14 58 -24 3 -34 -21 -3 -81 -24 -133 -45 -67 -27 -99 -36 -107 -29 -21 17 -16 25 35 60 34 23 42 34 30 36 -10 2 -38 -11 -64 -29 l-46 -31 -69 27 c-38 15 -69 30 -69 33 0 8 234 141 310 176 66 31 80 32 80 7z m125 -81 c9 -14 -23 -70 -40 -70 -20 0 -19 15 2 51 18 30 28 35 38 19z m-419 -171 c55 -28 75 -45 104 -89 47 -70 97 -184 106 -236 6 -39 5 -41 -27 -55 -19 -7 -56 -14 -83 -14 l-49 0 -12 43 c-19 63 -40 89 -95 117 -128 65 -250 8 -365 -171 -59 -90 -293 -560 -315 -633 -22 -68 -25 -117 -10 -141 8 -13 10 -13 14 0 3 8 7 35 9 60 l3 45 16 -35 c32 -69 119 -130 185 -130 44 0 124 44 169 91 53 57 102 131 198 301 42 76 81 138 85 138 11 0 41 -45 41 -61 0 -6 -21 -56 -47 -110 -25 -55 -44 -102 -41 -104 5 -6 41 48 90 135 31 54 63 85 78 75 12 -8 -63 -157 -155 -305 -139 -225 -305 -326 -520 -318 -87 3 -96 5 -132 34 -81 65 -143 199 -143 308 0 29 9 79 20 112 27 78 247 519 330 659 77 131 194 255 280 299 48 24 63 27 126 23 56 -3 86 -11 140 -38z m-127 -283 c30 -16 53 -46 65 -83 10 -30 -6 -29 -52 2 -47 32 -62 32 -32 0 13 -14 48 -34 79 -46 79 -30 175 -22 314 25 121 41 121 41 113 20 -4 -11 1 -18 14 -21 27 -7 25 -29 -5 -78 -13 -22 -25 -50 -25 -63 0 -17 -11 -27 -44 -41 -125 -54 -283 -67 -380 -30 -98 36 -178 136 -192 241 -5 38 -3 49 15 67 25 25 88 28 130 7z m119 -36 c23 -45 26 -80 7 -82 -14 -2 -55 81 -55 110 0 35 22 23 48 -28z m-294 -37 c8 -54 58 -153 92 -184 16 -14 50 -40 77 -58 26 -18 47 -38 47 -46 0 -35 -189 -365 -268 -469 -109 -142 -266 -127 -329 33 -16 41 -16 46 1 93 61 173 341 689 365 674 5 -3 11 -23 15 -43z m748 0 c10 -9 18 -30 18 -48 0 -17 4 -35 10 -41 12 -12 1 -27 -34 -42 -38 -17 -42 -10 -21 34 16 34 16 39 1 71 -9 18 -16 36 -16 38 0 11 25 4 42 -12z m-346 -315 c3 -4 -2 -23 -11 -41 -14 -30 -19 -33 -48 -29 -34 5 -87 47 -87 69 0 10 18 13 71 11 38 -1 72 -5 75 -10z"/> <path d="M770 1420 c0 -5 18 -13 40 -16 58 -9 137 -69 194 -146 52 -70 83 -83 45 -20 -49 81 -89 121 -161 156 -69 35 -118 46 -118 26z"/> <path d="M304 795 c-18 -27 -14 -41 9 -32 17 6 29 45 17 52 -5 3 -17 -6 -26 -20z"/> <path d="M192 573 c-33 -71 -64 -141 -68 -158 -6 -27 -5 -29 10 -15 16 15 136 272 136 290 0 31 -24 -5 -78 -117z"/> <path d="M480 170 c-14 -4 -51 -8 -83 -9 -36 -1 -56 -5 -52 -11 13 -21 175 -5 183 18 4 13 -10 14 -48 2z"/> <path d="M1070 964 c-25 -7 -82 -13 -128 -13 -59 -1 -81 -4 -76 -12 14 -24 284 7 284 32 0 12 -24 10 -80 -7z"/> <path d="M1573 1129 c-18 -18 -17 -151 1 -193 27 -65 101 -95 159 -65 31 17 37 28 37 74 0 52 -48 136 -93 164 -45 27 -89 36 -104 20z m109 -60 c45 -45 70 -99 60 -127 -10 -27 -37 3 -58 63 -4 12 -8 15 -11 8 -9 -25 -31 -12 -57 31 -55 94 -17 108 66 25z m-60 -64 c18 -27 50 -61 71 -74 49 -32 48 -51 -2 -51 -51 0 -85 30 -105 93 -18 53 -21 90 -7 85 5 -1 24 -25 43 -53z"/> <path d="M1804 1058 c-4 -6 21 -66 57 -135 61 -116 66 -123 95 -123 58 0 104 76 80 133 -16 39 -86 104 -132 123 -41 17 -90 18 -100 2z m80 -19 c13 -6 32 -27 42 -45 18 -33 34 -44 34 -24 0 19 15 10 38 -23 47 -70 8 -91 -67 -37 -37 27 -101 110 -101 132 0 11 25 10 54 -3z m100 -175 c23 -9 20 -31 -5 -39 -20 -7 -59 18 -59 37 0 9 41 11 64 2z"/> </g> </svg> 