<svg version="1.0" xmlns="http://www.w3.org/2000/svg"
 width="300.000000pt" height="217.000000pt" viewBox="0 0 300.000000 217.000000"
 preserveAspectRatio="xMidYMid meet">
<metadata>
Created by potrace 1.10, written by Peter Selinger 2001-2011
</metadata>

<!-- Background (dark outer border) -->
<rect width="100%" height="100%" fill="#2b2b2b"/>

<!-- Beige outer border -->
<g transform="translate(0.000000,217.000000) scale(0.100000,-0.100000)"
fill="#ebe5c0" stroke="none">
<path d="M482 1959 c-24 -9 -237 -212 -252 -240 -15 -26 -19 -148 -25 -689 -3
-289 -8 -576 -11 -639 -6 -123 2 -161 39 -179 12 -6 116 -13 231 -17 116 -3
213 -8 216 -10 3 -2 154 -6 335 -10 836 -16 1015 -7 1260 65 249 72 416 195
523 382 101 178 130 524 62 741 -11 34 -20 70 -20 80 0 9 -4 17 -10 17 -5 0
-10 8 -10 17 0 29 -79 151 -142 218 -111 119 -244 189 -438 230 -57 12 -280
18 -1085 31 -203 3 -433 7 -510 8 -77 2 -150 0 -163 -5z"/>
</g>

<!-- Orange main "ID" shape -->
<g transform="translate(0.000000,217.000000) scale(0.100000,-0.100000)"
fill="#eb5638" stroke="none">
<path d="M439 1793 l-82 -80 214 -6 c118 -4 468 -9 779 -13 311 -3 602 -10
648 -14 271 -29 467 -145 555 -330 53 -112 71 -215 65 -384 -5 -124 -9 -152
-37 -236 -37 -110 -82 -184 -158 -256 -59 -57 -177 -121 -238 -129 -22 -3 -56
-9 -75 -14 -46 -12 -156 -29 -250 -38 -67 -7 -313 -6 -795 2 -295 4 -274 2
-287 30 -17 37 -30 30 -26 -12 l3 -38 385 -8 c727 -15 857 -4 1185 99 223 70
365 217 425 439 27 100 38 344 21 454 -56 360 -273 546 -675 580 -61 6 -361
12 -666 15 -305 4 -635 9 -732 12 l-178 7 -81 -80z"/>
</g>

<!-- Dark elements (I and D cutouts) -->
<g transform="translate(0.000000,217.000000) scale(0.100000,-0.100000)"
fill="#2b2b2b" stroke="none">
<path d="M330 1658 c0 -24 -9 -342 -20 -708 -10 -366 -16 -668 -11 -673 4 -4
97 -6 207 -5 197 3 199 3 202 25 3 22 2 22 -28 6 -43 -21 -336 -15 -351 7 -9
13 -7 167 6 585 2 55 7 246 10 425 4 179 11 333 16 342 14 26 11 38 -11 38
-17 0 -20 -7 -20 -42z"/>
<path d="M1348 1392 c-10 -2 -18 -8 -18 -13 0 -5 77 -9 183 -9 207 0 288 -10
368 -46 71 -32 120 -82 156 -159 25 -54 28 -70 27 -165 0 -128 -22 -194 -90
-269 -37 -41 -58 -55 -112 -73 -60 -19 -92 -22 -291 -24 -138 -2 -228 -7 -235
-14 -5 -5 -30 -10 -55 -10 -24 0 -41 -3 -37 -7 10 -10 396 -4 481 8 39 5 90
16 115 23 25 8 57 17 71 20 14 3 46 24 72 46 36 32 52 57 76 120 27 68 31 93
32 178 1 84 -3 107 -27 166 -70 174 -222 240 -549 234 -82 -1 -158 -4 -167 -6z"/>
<path d="M1215 1369 c-4 -6 -10 -177 -13 -380 -4 -287 -2 -369 7 -369 7 0 32
13 55 29 l43 30 6 257 c4 141 7 299 7 351 l0 93 -49 0 c-28 0 -53 -5 -56 -11z"/>
<path d="M1388 1009 c-2 -167 -3 -305 -3 -305 0 -8 268 -11 328 -3 105 13 150
33 196 85 48 55 66 116 65 219 -1 146 -63 234 -194 277 -51 16 -99 22 -227 26
l-161 4 -4 -303z"/>
<path d="M690 1142 c0 -82 -3 -298 -7 -480 -7 -356 -7 -355 43 -309 l24 23 0
413 c0 387 -1 416 -19 457 -34 75 -41 56 -41 -104z"/>
<path d="M745 1280 c-3 -5 1 -10 9 -10 13 0 16 -16 16 -97 0 -108 5 -118 13
-28 3 33 9 68 12 78 4 10 0 28 -9 42 -17 27 -31 31 -41 15z"/>
<path d="M2827 190 c-40 -32 -43 -57 -11 -91 34 -36 54 -36 88 -3 33 34 33 54
-2 87 -34 32 -42 33 -75 7z m73 -37 c25 -7 26 -20 1 -28 -11 -3 -23 -15 -26
-26 -8 -25 -21 -24 -28 2 -3 11 -15 23 -26 26 -18 5 -17 7 12 37 30 30 33 31
40 13 4 -10 16 -21 27 -24z"/>
</g>
</svg>